<svg width="24" height="25" viewBox="0 0 24 25" fill="none" xmlns="http://www.w3.org/2000/svg">
<g id="instagram">
<g id="instagram_2">
<path fill-rule="evenodd" clip-rule="evenodd" d="M12 7.3916C9.23858 7.3916 7 9.63018 7 12.3916C7 15.153 9.23858 17.3916 12 17.3916C14.7614 17.3916 17 15.153 17 12.3916C17 9.63018 14.7614 7.3916 12 7.3916ZM9 12.3916C9 14.0485 10.3431 15.3916 12 15.3916C13.6569 15.3916 15 14.0485 15 12.3916C15 10.7347 13.6569 9.3916 12 9.3916C10.3431 9.3916 9 10.7347 9 12.3916Z" fill="#F5F0E1"/>
<path d="M18 5.3916C17.4477 5.3916 17 5.83932 17 6.3916C17 6.94389 17.4477 7.3916 18 7.3916C18.5523 7.3916 19 6.94389 19 6.3916C19 5.83932 18.5523 5.3916 18 5.3916Z" fill="#F5F0E1"/>
<path fill-rule="evenodd" clip-rule="evenodd" d="M5 1.3916C2.79086 1.3916 1 3.18246 1 5.3916V19.3916C1 21.6007 2.79086 23.3916 5 23.3916H19C21.2091 23.3916 23 21.6007 23 19.3916V5.3916C23 3.18246 21.2091 1.3916 19 1.3916H5ZM19 3.3916H5C3.89543 3.3916 3 4.28703 3 5.3916V19.3916C3 20.4962 3.89543 21.3916 5 21.3916H19C20.1046 21.3916 21 20.4962 21 19.3916V5.3916C21 4.28703 20.1046 3.3916 19 3.3916Z" fill="#F5F0E1"/>
</g>
</g>
</svg>
