<svg width="21" height="22" viewBox="0 0 21 22" fill="none" xmlns="http://www.w3.org/2000/svg">
<g id="_Linkedin" clip-path="url(#clip0_425_4584)">
<path id="Vector" d="M0 3.15823C0 2.48254 0.236493 1.92511 0.709459 1.48593C1.18243 1.04674 1.7973 0.827148 2.55405 0.827148C3.2973 0.827148 3.89864 1.04335 4.35811 1.4758C4.83107 1.92174 5.06757 2.50281 5.06757 3.21904C5.06757 3.86769 4.83784 4.40822 4.37838 4.84066C3.90541 5.28661 3.28378 5.50958 2.51351 5.50958H2.49324C1.74999 5.50958 1.14866 5.28661 0.689189 4.84066C0.229723 4.39472 0 3.8339 0 3.15823ZM0.263514 20.8947V7.35418H4.76351V20.8947H0.263514ZM7.25676 20.8947H11.7568V13.3339C11.7568 12.8609 11.8108 12.4961 11.9189 12.2393C12.1081 11.7798 12.3953 11.3913 12.7804 11.0738C13.1655 10.7562 13.6486 10.5974 14.2297 10.5974C15.7432 10.5974 16.5 11.6177 16.5 13.6582V20.8947H21V13.1312C21 11.1312 20.527 9.61431 19.5811 8.58053C18.6351 7.54674 17.3851 7.02985 15.8311 7.02985C14.0878 7.02985 12.7297 7.77985 11.7568 9.27985V9.32039H11.7365L11.7568 9.27985V7.35418H7.25676C7.28378 7.7866 7.2973 9.13119 7.2973 11.388C7.2973 13.6447 7.28378 16.8136 7.25676 20.8947Z" fill="#F5F0E1"/>
</g>
<defs>
<clipPath id="clip0_425_4584">
<rect width="21" height="21" fill="white" transform="translate(0 0.356445)"/>
</clipPath>
</defs>
</svg>
