<svg width="55" height="53" viewBox="0 0 55 53" fill="none" xmlns="http://www.w3.org/2000/svg">
<g id="Group 1000004546">
<path id="Vector" d="M16.2931 12.9179L36.9639 6.39374C46.2452 3.46761 51.2869 8.25779 48.216 17.0362L41.3181 36.5871C36.6889 49.7438 29.0806 49.7438 24.4514 36.5871L22.4118 30.7782L16.2702 28.8491C2.38268 24.4924 2.38268 17.318 16.2931 12.9179Z" fill="#F5F0E1"/>
<path id="Vector_2" d="M27.7754 25.2076L36.5066 16.9277L27.7754 25.2076Z" fill="#171717"/>
<path id="Vector_3" d="M27.7755 26.8343C27.3401 26.8343 26.9047 26.6826 26.5609 26.3574C25.8964 25.7289 25.8964 24.6885 26.5609 24.0599L35.2693 15.78C35.9339 15.1514 37.0339 15.1514 37.6984 15.78C38.363 16.4086 38.363 17.449 37.6984 18.0776L28.9901 26.3574C28.6464 26.6609 28.2109 26.8343 27.7755 26.8343Z" fill="#F3B95E"/>
</g>
</svg>
