<svg xmlns="http://www.w3.org/2000/svg" xmlns:xlink="http://www.w3.org/1999/xlink" width="500" zoomAndPan="magnify" viewBox="0 0 375 374.999991" height="500" preserveAspectRatio="xMidYMid meet" version="1.0"><defs><g/></defs><g fill="#599e9e" fill-opacity="1"><g transform="translate(26.488809, 208.499986)"><g><path d="M 5.484375 0 L 5.484375 -43.8125 L 24 -43.8125 C 25.894531 -43.8125 27.625 -43.421875 29.1875 -42.640625 C 30.75 -41.859375 32.113281 -40.796875 33.28125 -39.453125 C 34.457031 -38.117188 35.363281 -36.640625 36 -35.015625 C 36.632812 -33.390625 36.953125 -31.734375 36.953125 -30.046875 C 36.953125 -27.953125 36.550781 -25.976562 35.75 -24.125 C 34.945312 -22.269531 33.816406 -20.707031 32.359375 -19.4375 C 30.898438 -18.164062 29.1875 -17.320312 27.21875 -16.90625 L 37.953125 0 L 33.078125 0 L 22.765625 -16.171875 L 9.8125 -16.171875 L 9.8125 0 Z M 9.8125 -19.984375 L 24.125 -19.984375 C 25.851562 -19.984375 27.351562 -20.457031 28.625 -21.40625 C 29.90625 -22.351562 30.894531 -23.597656 31.59375 -25.140625 C 32.289062 -26.679688 32.640625 -28.316406 32.640625 -30.046875 C 32.640625 -31.816406 32.238281 -33.453125 31.4375 -34.953125 C 30.632812 -36.453125 29.5625 -37.664062 28.21875 -38.59375 C 26.882812 -39.519531 25.394531 -39.984375 23.75 -39.984375 L 9.8125 -39.984375 Z M 9.8125 -19.984375 "/></g></g></g><g fill="#599e9e" fill-opacity="1"><g transform="translate(66.778395, 208.499986)"><g><path d="M 23.140625 0.3125 C 20.054688 0.3125 17.257812 -0.300781 14.75 -1.53125 C 12.238281 -2.769531 10.078125 -4.445312 8.265625 -6.5625 C 6.453125 -8.6875 5.050781 -11.070312 4.0625 -13.71875 C 3.082031 -16.375 2.59375 -19.101562 2.59375 -21.90625 C 2.59375 -24.820312 3.101562 -27.609375 4.125 -30.265625 C 5.15625 -32.921875 6.609375 -35.285156 8.484375 -37.359375 C 10.359375 -39.441406 12.546875 -41.085938 15.046875 -42.296875 C 17.554688 -43.515625 20.273438 -44.125 23.203125 -44.125 C 26.285156 -44.125 29.082031 -43.484375 31.59375 -42.203125 C 34.101562 -40.929688 36.25 -39.222656 38.03125 -37.078125 C 39.820312 -34.941406 41.210938 -32.554688 42.203125 -29.921875 C 43.191406 -27.296875 43.6875 -24.601562 43.6875 -21.84375 C 43.6875 -18.925781 43.171875 -16.140625 42.140625 -13.484375 C 41.109375 -10.828125 39.664062 -8.457031 37.8125 -6.375 C 35.96875 -4.300781 33.789062 -2.664062 31.28125 -1.46875 C 28.769531 -0.28125 26.054688 0.3125 23.140625 0.3125 Z M 6.90625 -21.90625 C 6.90625 -19.519531 7.296875 -17.222656 8.078125 -15.015625 C 8.859375 -12.816406 9.96875 -10.863281 11.40625 -9.15625 C 12.851562 -7.457031 14.570312 -6.101562 16.5625 -5.09375 C 18.5625 -4.082031 20.753906 -3.578125 23.140625 -3.578125 C 25.648438 -3.578125 27.898438 -4.097656 29.890625 -5.140625 C 31.890625 -6.191406 33.597656 -7.59375 35.015625 -9.34375 C 36.429688 -11.09375 37.507812 -13.054688 38.25 -15.234375 C 38.988281 -17.421875 39.359375 -19.644531 39.359375 -21.90625 C 39.359375 -24.289062 38.96875 -26.570312 38.1875 -28.75 C 37.40625 -30.9375 36.285156 -32.890625 34.828125 -34.609375 C 33.367188 -36.335938 31.648438 -37.695312 29.671875 -38.6875 C 27.703125 -39.675781 25.523438 -40.171875 23.140625 -40.171875 C 20.671875 -40.171875 18.4375 -39.65625 16.4375 -38.625 C 14.445312 -37.59375 12.738281 -36.203125 11.3125 -34.453125 C 9.894531 -32.710938 8.804688 -30.75 8.046875 -28.5625 C 7.285156 -26.382812 6.90625 -24.164062 6.90625 -21.90625 Z M 6.90625 -21.90625 "/></g></g></g><g fill="#599e9e" fill-opacity="1"><g transform="translate(113.114502, 208.499986)"><g><path d="M 23.140625 0.3125 C 20.054688 0.3125 17.257812 -0.300781 14.75 -1.53125 C 12.238281 -2.769531 10.078125 -4.445312 8.265625 -6.5625 C 6.453125 -8.6875 5.050781 -11.070312 4.0625 -13.71875 C 3.082031 -16.375 2.59375 -19.101562 2.59375 -21.90625 C 2.59375 -24.820312 3.101562 -27.609375 4.125 -30.265625 C 5.15625 -32.921875 6.609375 -35.285156 8.484375 -37.359375 C 10.359375 -39.441406 12.546875 -41.085938 15.046875 -42.296875 C 17.554688 -43.515625 20.273438 -44.125 23.203125 -44.125 C 26.285156 -44.125 29.082031 -43.484375 31.59375 -42.203125 C 34.101562 -40.929688 36.25 -39.222656 38.03125 -37.078125 C 39.820312 -34.941406 41.210938 -32.554688 42.203125 -29.921875 C 43.191406 -27.296875 43.6875 -24.601562 43.6875 -21.84375 C 43.6875 -18.925781 43.171875 -16.140625 42.140625 -13.484375 C 41.109375 -10.828125 39.664062 -8.457031 37.8125 -6.375 C 35.96875 -4.300781 33.789062 -2.664062 31.28125 -1.46875 C 28.769531 -0.28125 26.054688 0.3125 23.140625 0.3125 Z M 6.90625 -21.90625 C 6.90625 -19.519531 7.296875 -17.222656 8.078125 -15.015625 C 8.859375 -12.816406 9.96875 -10.863281 11.40625 -9.15625 C 12.851562 -7.457031 14.570312 -6.101562 16.5625 -5.09375 C 18.5625 -4.082031 20.753906 -3.578125 23.140625 -3.578125 C 25.648438 -3.578125 27.898438 -4.097656 29.890625 -5.140625 C 31.890625 -6.191406 33.597656 -7.59375 35.015625 -9.34375 C 36.429688 -11.09375 37.507812 -13.054688 38.25 -15.234375 C 38.988281 -17.421875 39.359375 -19.644531 39.359375 -21.90625 C 39.359375 -24.289062 38.96875 -26.570312 38.1875 -28.75 C 37.40625 -30.9375 36.285156 -32.890625 34.828125 -34.609375 C 33.367188 -36.335938 31.648438 -37.695312 29.671875 -38.6875 C 27.703125 -39.675781 25.523438 -40.171875 23.140625 -40.171875 C 20.671875 -40.171875 18.4375 -39.65625 16.4375 -38.625 C 14.445312 -37.59375 12.738281 -36.203125 11.3125 -34.453125 C 9.894531 -32.710938 8.804688 -30.75 8.046875 -28.5625 C 7.285156 -26.382812 6.90625 -24.164062 6.90625 -21.90625 Z M 6.90625 -21.90625 "/></g></g></g><g fill="#599e9e" fill-opacity="1"><g transform="translate(159.450608, 208.499986)"><g><path d="M 36.59375 -39.984375 L 20.984375 -39.984375 L 20.984375 0 L 16.65625 0 L 16.65625 -39.984375 L 1.046875 -39.984375 L 1.046875 -43.8125 L 36.59375 -43.8125 Z M 36.59375 -39.984375 "/></g></g></g><g fill="#599e9e" fill-opacity="1"><g transform="translate(197.087122, 208.499986)"><g><path d="M 31.09375 -35.609375 C 30.476562 -36.304688 29.757812 -36.929688 28.9375 -37.484375 C 28.113281 -38.035156 27.1875 -38.515625 26.15625 -38.921875 C 25.132812 -39.335938 24.035156 -39.671875 22.859375 -39.921875 C 21.691406 -40.171875 20.445312 -40.296875 19.125 -40.296875 C 15.300781 -40.296875 12.492188 -39.5625 10.703125 -38.09375 C 8.910156 -36.632812 8.015625 -34.648438 8.015625 -32.140625 C 8.015625 -30.421875 8.4375 -29.066406 9.28125 -28.078125 C 10.125 -27.085938 11.453125 -26.285156 13.265625 -25.671875 C 15.078125 -25.054688 17.378906 -24.414062 20.171875 -23.75 C 23.296875 -23.09375 25.988281 -22.3125 28.25 -21.40625 C 30.519531 -20.5 32.269531 -19.273438 33.5 -17.734375 C 34.738281 -16.191406 35.359375 -14.109375 35.359375 -11.484375 C 35.359375 -9.460938 34.96875 -7.710938 34.1875 -6.234375 C 33.40625 -4.753906 32.3125 -3.519531 30.90625 -2.53125 C 29.507812 -1.539062 27.84375 -0.804688 25.90625 -0.328125 C 23.976562 0.140625 21.863281 0.375 19.5625 0.375 C 17.300781 0.375 15.128906 0.140625 13.046875 -0.328125 C 10.972656 -0.804688 9.007812 -1.507812 7.15625 -2.4375 C 5.300781 -3.363281 3.570312 -4.546875 1.96875 -5.984375 L 4.140625 -9.5 C 4.921875 -8.675781 5.851562 -7.90625 6.9375 -7.1875 C 8.03125 -6.46875 9.242188 -5.816406 10.578125 -5.234375 C 11.921875 -4.660156 13.363281 -4.21875 14.90625 -3.90625 C 16.445312 -3.601562 18.039062 -3.453125 19.6875 -3.453125 C 23.175781 -3.453125 25.898438 -4.085938 27.859375 -5.359375 C 29.816406 -6.640625 30.796875 -8.535156 30.796875 -11.046875 C 30.796875 -12.859375 30.300781 -14.304688 29.3125 -15.390625 C 28.320312 -16.484375 26.835938 -17.378906 24.859375 -18.078125 C 22.890625 -18.773438 20.460938 -19.453125 17.578125 -20.109375 C 14.535156 -20.816406 11.960938 -21.597656 9.859375 -22.453125 C 7.765625 -23.316406 6.191406 -24.457031 5.140625 -25.875 C 4.097656 -27.300781 3.578125 -29.1875 3.578125 -31.53125 C 3.578125 -34.25 4.242188 -36.539062 5.578125 -38.40625 C 6.921875 -40.28125 8.765625 -41.703125 11.109375 -42.671875 C 13.453125 -43.640625 16.144531 -44.125 19.1875 -44.125 C 21.125 -44.125 22.925781 -43.925781 24.59375 -43.53125 C 26.257812 -43.144531 27.800781 -42.578125 29.21875 -41.828125 C 30.632812 -41.085938 31.960938 -40.164062 33.203125 -39.0625 Z M 31.09375 -35.609375 "/></g></g></g><g fill="#599e9e" fill-opacity="1"><g transform="translate(234.543483, 208.499986)"><g/></g></g><g fill="#f3b95e" fill-opacity="1"><g transform="translate(246.46783, 208.250026)"><g><path d="M 1.699219 0 L 3.875 0 L 3.875 -7.648438 L 11.074219 -7.648438 L 11.074219 -9.648438 L 3.875 -9.648438 L 3.875 -15.5 L 12.574219 -15.5 L 12.574219 -17.5 L 1.699219 -17.5 Z M 1.699219 0 "/></g></g></g><g fill="#f3b95e" fill-opacity="1"><g transform="translate(259.66574, 208.250026)"><g><path d="M 7.300781 -12.75 C 5.023438 -12.75 4.050781 -11.796875 3.449219 -10.824219 L 3.175781 -12.75 L 1.398438 -12.75 L 1.398438 0 L 3.449219 0 L 3.449219 -6.5 C 3.449219 -8.523438 4.175781 -10.75 6.847656 -10.75 L 7.875 -10.75 L 7.875 -12.75 Z M 7.300781 -12.75 "/></g></g></g><g fill="#f3b95e" fill-opacity="1"><g transform="translate(267.914434, 208.250026)"><g><path d="M 7.273438 0.148438 C 11 0.148438 13.597656 -2.5 13.597656 -6.375 C 13.597656 -10.25 11 -12.898438 7.273438 -12.898438 C 3.550781 -12.898438 0.949219 -10.25 0.949219 -6.375 C 0.949219 -2.5 3.550781 0.148438 7.273438 0.148438 Z M 7.273438 -1.675781 C 4.75 -1.675781 3.050781 -3.648438 3.050781 -6.375 C 3.050781 -9.097656 4.75 -11.074219 7.273438 -11.074219 C 9.800781 -11.074219 11.5 -9.097656 11.5 -6.375 C 11.5 -3.648438 9.800781 -1.675781 7.273438 -1.675781 Z M 7.273438 -1.675781 "/></g></g></g><g fill="#f3b95e" fill-opacity="1"><g transform="translate(282.462129, 208.250026)"><g><path d="M 15.625 -12.898438 C 13.347656 -12.898438 11.972656 -11.847656 11.199219 -10.472656 C 10.472656 -12.097656 8.949219 -12.898438 7.175781 -12.898438 C 5.199219 -12.898438 4.125 -11.921875 3.449219 -11 L 3.175781 -12.75 L 1.398438 -12.75 L 1.398438 0 L 3.449219 0 L 3.449219 -6.722656 C 3.449219 -9.273438 4.722656 -11.023438 6.824219 -11.023438 C 8.773438 -11.023438 9.898438 -9.722656 9.898438 -7.222656 L 9.898438 0 L 11.949219 0 L 11.949219 -6.824219 C 11.949219 -9.425781 13.25 -11.023438 15.375 -11.023438 C 17.296875 -11.023438 18.398438 -9.722656 18.398438 -7.222656 L 18.398438 0 L 20.449219 0 L 20.449219 -7.347656 C 20.449219 -11.375 18.273438 -12.898438 15.625 -12.898438 Z M 15.625 -12.898438 "/></g></g></g><g fill="#f3b95e" fill-opacity="1"><g transform="translate(304.133701, 208.250026)"><g/></g></g><g fill="#f3b95e" fill-opacity="1"><g transform="translate(310.682662, 208.250026)"><g><path d="M 1.699219 0 L 3.875 0 L 3.875 -17.5 L 1.699219 -17.5 Z M 1.699219 0 "/></g></g></g><g fill="#f3b95e" fill-opacity="1"><g transform="translate(316.256782, 208.250026)"><g><path d="M 7.648438 -12.898438 C 5.5 -12.898438 4.199219 -12 3.449219 -11.023438 L 3.175781 -12.75 L 1.398438 -12.75 L 1.398438 0 L 3.449219 0 L 3.449219 -6.375 C 3.449219 -9.25 4.898438 -11.023438 7.300781 -11.023438 C 9.523438 -11.023438 10.75 -9.625 10.75 -6.972656 L 10.75 0 L 12.796875 0 L 12.796875 -7.097656 C 12.796875 -11.324219 10.523438 -12.898438 7.648438 -12.898438 Z M 7.648438 -12.898438 "/></g></g></g><g fill="#f3b95e" fill-opacity="1"><g transform="translate(330.279559, 208.250026)"><g><path d="M 11.449219 -10.800781 C 10.675781 -12.023438 9.222656 -12.898438 7.074219 -12.898438 C 3.550781 -12.898438 0.949219 -10.273438 0.949219 -6.375 C 0.949219 -2.226562 3.550781 0.148438 7.074219 0.148438 C 9.222656 0.148438 10.597656 -0.875 11.449219 -2.050781 L 11.722656 0 L 13.5 0 L 13.5 -17.5 L 11.449219 -17.5 Z M 7.273438 -1.675781 C 4.75 -1.675781 3.050781 -3.601562 3.050781 -6.375 C 3.050781 -9.148438 4.75 -11.074219 7.273438 -11.074219 C 9.773438 -11.074219 11.472656 -9.125 11.472656 -6.324219 C 11.472656 -3.601562 9.773438 -1.675781 7.273438 -1.675781 Z M 7.273438 -1.675781 "/></g></g></g><g fill="#f3b95e" fill-opacity="1"><g transform="translate(345.177201, 208.250026)"><g><path d="M 2.449219 -14.898438 C 3.199219 -14.898438 3.773438 -15.449219 3.773438 -16.222656 C 3.773438 -17 3.199219 -17.546875 2.449219 -17.546875 C 1.699219 -17.546875 1.125 -17 1.125 -16.222656 C 1.125 -15.449219 1.699219 -14.898438 2.449219 -14.898438 Z M 1.398438 0 L 3.449219 0 L 3.449219 -12.75 L 1.398438 -12.75 Z M 1.398438 0 "/></g></g></g><g fill="#f3b95e" fill-opacity="1"><g transform="translate(350.026429, 208.250026)"><g><path d="M 12.671875 -1.875 C 12.097656 -1.875 11.847656 -2.050781 11.847656 -2.726562 L 11.847656 -8.300781 C 11.847656 -11.273438 9.972656 -12.898438 6.722656 -12.898438 C 3.648438 -12.898438 1.625 -11.425781 1.324219 -8.925781 L 3.375 -8.925781 C 3.625 -10.222656 4.824219 -11.074219 6.625 -11.074219 C 8.625 -11.074219 9.800781 -10.074219 9.800781 -8.425781 L 9.800781 -7.550781 L 6.050781 -7.550781 C 2.699219 -7.550781 0.925781 -6.125 0.925781 -3.574219 C 0.925781 -1.25 2.824219 0.148438 5.625 0.148438 C 7.824219 0.148438 9.097656 -0.824219 9.898438 -1.976562 C 9.925781 -0.726562 10.5 0 12.199219 0 L 13.324219 0 L 13.324219 -1.875 Z M 9.800781 -5.199219 C 9.800781 -3.074219 8.324219 -1.601562 5.773438 -1.601562 C 4.074219 -1.601562 3 -2.449219 3 -3.699219 C 3 -5.148438 4.023438 -5.824219 5.847656 -5.824219 L 9.800781 -5.824219 Z M 9.800781 -5.199219 "/></g></g></g></svg>