<svg width="55" height="53" viewBox="0 0 55 53" fill="none" xmlns="http://www.w3.org/2000/svg">
<g id="Group 1000004544">
<path id="Vector" d="M43.708 14.2019C41.2987 9.65262 36.7037 6.26445 31.4086 5.10887C25.8634 3.88598 20.2094 5.07436 15.9166 8.34522C11.6009 11.5943 9.18558 16.5009 9.24543 21.7787C9.3087 27.3582 12.8891 33.234 18.2328 36.6734L18.2531 38.4614C18.2373 39.0643 18.2251 39.9904 19.0045 40.7527C19.8068 41.5368 20.9868 41.6356 21.9163 41.6456L33.5473 41.771C34.7716 41.7842 35.6975 41.471 36.3255 40.8747C37.1775 40.0438 37.1426 38.9665 37.1133 38.3846L37.0962 36.8766C44.0736 32.45 48.387 22.9975 43.708 14.2019Z" fill="#F5F0E1"/>
<path id="Vector_2" d="M35.1364 47.7972C35.0003 47.7957 34.8414 47.7725 34.7049 47.7279C30.1338 46.4509 25.3499 46.3993 20.8067 47.5782C19.9703 47.7845 19.0809 47.3226 18.8452 46.5231C18.5867 45.7234 19.076 44.8886 19.9124 44.6822C25.0207 43.3587 30.4168 43.4168 35.5564 44.8508C36.3979 45.0968 36.906 45.9208 36.6656 46.7151C36.4465 47.3805 35.8166 47.8045 35.1364 47.7972Z" fill="#F3B95E"/>
<path id="Vector_3" d="M27.5454 30.16C27.2507 30.1568 26.9552 30.089 26.7041 29.9356C25.8828 29.4744 25.5995 28.4805 26.0444 27.7314L27.9353 24.5639L26.0309 24.5434C24.8972 24.5312 23.9623 24.0472 23.4545 23.2448C22.9464 22.4208 22.9805 21.4303 23.5366 20.4886L25.9171 16.5078C26.3844 15.7374 27.4244 15.4902 28.2228 15.9296C29.0441 16.3908 29.3275 17.3846 28.8826 18.1337L26.9918 21.3228L28.8963 21.3433C30.0299 21.3555 30.9648 21.8395 31.4727 22.6419C31.9808 23.4659 31.9466 24.4563 31.3906 25.3981L29.0101 29.3788C28.6985 29.8924 28.1349 30.1664 27.5454 30.16Z" fill="#F3B95E"/>
</g>
</svg>
